<svg width="30" height="27" viewBox="0 0 30 27" xmlns="http://www.w3.org/2000/svg">
  <defs>
    <filter colorInterpolationFilters="auto" id="fo4y3pxowa">
      <feColorMatrix in="SourceGraphic" values="0 0 0 0 0.996078 0 0 0 0 0.003922 0 0 0 0 0.007843 0 0 0 1.000000 0" />
    </filter>
  </defs>
  <g transform="translate(-1212 -33)" filter="url(#fo4y3pxowa)" fill="none" fillRule="evenodd">
    <path d="M1216.878 59.358h17.439c3.06 0 5.579-2.518 5.579-5.579v-.51a3.147 3.147 0 0 0 2.104-2.965v-4.176c0-1.37-.86-2.519-2.104-2.965v-.51c0-3.06-2.519-5.58-5.58-5.58h-.223l-.223-1.402c-.127-.893-.67-1.658-1.402-2.168a3.101 3.101 0 0 0-2.551-.382l-14.028 4.017c-.095.031-.223.063-.286.127a4.859 4.859 0 0 0-3.603 4.686v12.53c0 2.71 2.2 4.877 4.878 4.877zm21.966-13.58c.223 0 .35.127.35.35v4.176c0 .224-.127.351-.35.351h-4.209a2.436 2.436 0 0 1-2.455-2.455 2.436 2.436 0 0 1 2.455-2.455h4.209v.032zm-8.162-9.98a.4.4 0 0 1 .287.032c.064.032.128.096.128.255l.127.989h-4.941l4.4-1.275zm-15.908 6.154c0-1.148.956-2.105 2.104-2.105h17.439a2.776 2.776 0 0 1 2.773 2.774v.383h-2.455a5.211 5.211 0 0 0-5.228 5.228 5.231 5.231 0 0 0 5.228 5.229h2.455v.35a2.776 2.776 0 0 1-2.773 2.774h-17.44a2.123 2.123 0 0 1-2.103-2.104V41.95z" fill="#000" fillRule="nonzero" />
  </g>
</svg>